<?xml version="1.0" encoding="UTF-8" standalone="no"?>
<svg width="12px" height="33px" viewBox="0 0 12 33" version="1.1" xmlns="http://www.w3.org/2000/svg" xmlns:xlink="http://www.w3.org/1999/xlink" xmlns:sketch="http://www.bohemiancoding.com/sketch/ns">
    <!-- Generator: Sketch 3.4.3 (16044) - http://www.bohemiancoding.com/sketch -->
    <title>Shape</title>
    <desc>Created with Sketch.</desc>
    <defs></defs>
    <g id="Recipe-Detail" stroke="none" stroke-width="1" fill="none" fill-rule="evenodd" sketch:type="MSPage">
        <g id="Desktop-HD" sketch:type="MSArtboardGroup" transform="translate(-665.000000, -226.000000)" fill="#FFFFFF">
            <g id="Header" sketch:type="MSLayerGroup" transform="translate(0.000000, 50.000000)">
                <g id="Count" transform="translate(480.000000, 167.000000)" sketch:type="MSShapeGroup">
                    <g id="Made-count" transform="translate(166.000000, 0.000000)">
                        <path d="M27.1737374,41.0126009 C27.034354,39.2277188 26.8756118,37.4467086 26.7304207,35.6676342 C26.6355626,34.5080416 26.5542556,33.348449 26.4748845,32.1888564 C26.3955134,31.0699174 26.3103346,29.9509783 26.2638735,28.8320392 C26.2251558,27.8853935 26.4187439,26.9871449 27.0479052,26.2302155 C27.7932193,25.3358386 28.5404692,24.4492052 29.1947969,23.4851366 C30.2421084,21.9422396 30.7454374,20.215434 30.9312819,18.382155 C31.1074471,16.6960028 30.9525766,15.0446965 30.37762,13.4417873 C30.0330333,12.489334 29.5761654,11.5968929 28.9566836,10.7954383 C28.2384718,9.86427966 27.2879544,9.31061777 26.1302977,9.10928617 C24.5757854,8.84019875 23.1122596,9.03959446 21.8248989,10.0268936 C21.0137649,10.6444396 20.4988206,11.5039707 20.0845421,12.408027 C18.5513246,15.7435495 18.6965156,19.0810079 20.1871438,22.3778128 C20.7446774,23.6129047 21.6313108,24.6466651 22.5121366,25.6610666 C23.0929008,26.3366889 23.6039733,27.0297343 23.7104468,27.9454058 C23.7685232,28.4700295 23.7588438,28.9927173 23.7239979,29.5134693 C23.5613839,31.8675002 23.381347,34.2234671 23.2013101,36.5774981 C23.0967726,37.9964987 22.9786838,39.4135634 22.8722104,40.832564 C22.8102622,41.6417621 27.2221344,41.6243392 27.1737374,41.0126009 Z" id="Shape"></path>
                    </g>
                </g>
            </g>
        </g>
    </g>
</svg>