<?xml version="1.0" encoding="UTF-8" standalone="no"?>
<svg width="25px" height="25px" viewBox="0 0 25 25" version="1.1" xmlns="http://www.w3.org/2000/svg" xmlns:xlink="http://www.w3.org/1999/xlink" xmlns:sketch="http://www.bohemiancoding.com/sketch/ns">
    <!-- Generator: Sketch 3.4.3 (16044) - http://www.bohemiancoding.com/sketch -->
    <title>Shape</title>
    <desc>Created with Sketch.</desc>
    <defs></defs>
    <g id="Recipe-Detail" stroke="none" stroke-width="1" fill="none" fill-rule="evenodd" sketch:type="MSPage">
        <g id="Desktop-HD" sketch:type="MSArtboardGroup" transform="translate(-432.000000, -349.000000)" fill="#F68600">
            <g id="Content" sketch:type="MSLayerGroup" transform="translate(230.000000, 330.000000)">
                <g id="Recipe-Navigation" transform="translate(-28.000000, -13.000000)" sketch:type="MSShapeGroup">
                    <g id="Làm" transform="translate(230.000000, 32.000000)">
                        <path d="M12.503563,0.00589457576 C15.5547811,0.0271966858 18.2622529,1.00584068 20.5872286,2.99320224 C22.9697037,5.02943334 24.4209386,7.61576011 24.859684,10.7170967 C25.3771786,14.387325 24.4646881,17.7092011 22.0984628,20.5712022 C20.0597341,23.0347286 17.4272616,24.4870312 14.2660446,24.9769798 C13.8810486,25.0358738 13.8672987,25.0045472 13.8360491,24.6085786 C13.74605,23.4532524 13.6435511,22.3004323 13.5498021,21.1488653 C13.4885527,20.3982792 13.4360532,19.6476931 13.3848038,18.897107 C13.3335543,18.1728352 13.2785549,17.4485635 13.2485552,16.7242917 C13.2235555,16.1115428 13.3485542,15.5301205 13.7547999,15.040172 C14.2360449,14.4612558 14.7185399,13.8873519 15.1410355,13.2633254 C15.8172784,12.2646324 16.142275,11.1468981 16.2622737,9.96024528 C16.3760226,8.86882541 16.2760236,7.79996071 15.9047775,6.76242265 C15.6822798,6.14591452 15.3872829,5.56825142 14.9872871,5.04948239 C14.5235419,4.44675798 13.9097983,4.08838131 13.1623061,3.95806252 C12.1585666,3.78388644 11.2135764,3.91295217 10.3823351,4.55201547 C9.85859058,4.9517433 9.52609405,5.50810429 9.25859684,6.09328578 C8.26860717,8.25231728 8.36235619,10.4126019 9.32484615,12.546572 C9.68484239,13.3460277 10.2573364,14.0151646 10.8260805,14.6717708 C11.2010766,15.1090906 11.5310731,15.557688 11.5998224,16.1503878 C11.637322,16.4899685 11.6310721,16.8282962 11.6085723,17.1653707 C11.5035734,18.6890981 11.3873246,20.2140786 11.2710758,21.737806 C11.2035765,22.6563029 11.1273273,23.5735466 11.0585781,24.4920435 C11.0185785,25.0158248 11.0223284,25.0220901 10.5098338,24.9368817 C8.18110809,24.5484314 6.11862961,23.5898365 4.33614821,22.0360355 C2.31241933,20.2742257 0.942433629,18.091386 0.35493976,15.4724795 C-0.560050691,11.3862336 0.287440465,7.67465418 2.97366243,4.44801105 C5.07114054,1.93060287 7.7961121,0.504614563 11.0373283,0.0810784935 C11.5223232,0.0184252287 12.0110681,-0.014154469 12.503563,0.00589457576 L12.503563,0.00589457576 Z" id="Shape"></path>
                    </g>
                </g>
            </g>
        </g>
    </g>
</svg>