<?xml version="1.0" encoding="UTF-8" standalone="no"?>
<svg width="25px" height="25px" viewBox="0 0 25 25" version="1.1" xmlns="http://www.w3.org/2000/svg" xmlns:xlink="http://www.w3.org/1999/xlink" xmlns:sketch="http://www.bohemiancoding.com/sketch/ns">
    <!-- Generator: Sketch 3.4.3 (16044) - http://www.bohemiancoding.com/sketch -->
    <title>Shape</title>
    <desc>Created with Sketch.</desc>
    <defs></defs>
    <g id="Recipe-Detail" stroke="none" stroke-width="1" fill="none" fill-rule="evenodd" sketch:type="MSPage">
        <g id="Desktop-HD" sketch:type="MSArtboardGroup" transform="translate(-167.000000, -437.000000)" fill="#FFFFFF">
            <path d="M179.503563,437.005895 C182.554781,437.027197 185.262253,438.005841 187.587229,439.993202 C189.969704,442.029433 191.420939,444.61576 191.859684,447.717097 C192.377179,451.387325 191.464688,454.709201 189.098463,457.571202 C187.059734,460.034729 184.427262,461.487031 181.266045,461.97698 C180.881049,462.035874 180.867299,462.004547 180.836049,461.608579 C180.74605,460.453252 180.643551,459.300432 180.549802,458.148865 C180.488553,457.398279 180.436053,456.647693 180.384804,455.897107 C180.333554,455.172835 180.278555,454.448563 180.248555,453.724292 C180.223555,453.111543 180.348554,452.530121 180.7548,452.040172 C181.236045,451.461256 181.71854,450.887352 182.141035,450.263325 C182.817278,449.264632 183.142275,448.146898 183.262274,446.960245 C183.376023,445.868825 183.276024,444.799961 182.904777,443.762423 C182.68228,443.145915 182.387283,442.568251 181.987287,442.049482 C181.523542,441.446758 180.909798,441.088381 180.162306,440.958063 C179.158567,440.783886 178.213576,440.912952 177.382335,441.552015 C176.858591,441.951743 176.526094,442.508104 176.258597,443.093286 C175.268607,445.252317 175.362356,447.412602 176.324846,449.546572 C176.684842,450.346028 177.257336,451.015165 177.82608,451.671771 C178.201077,452.109091 178.531073,452.557688 178.599822,453.150388 C178.637322,453.489969 178.631072,453.828296 178.608572,454.165371 C178.503573,455.689098 178.387325,457.214079 178.271076,458.737806 C178.203577,459.656303 178.127327,460.573547 178.058578,461.492044 C178.018578,462.015825 178.022328,462.02209 177.509834,461.936882 C175.181108,461.548431 173.11863,460.589836 171.336148,459.036036 C169.312419,457.274226 167.942434,455.091386 167.35494,452.47248 C166.439949,448.386234 167.28744,444.674654 169.973662,441.448011 C172.071141,438.930603 174.796112,437.504615 178.037328,437.081078 C178.522323,437.018425 179.011068,436.985846 179.503563,437.005895 L179.503563,437.005895 Z" id="Shape" sketch:type="MSShapeGroup"></path>
        </g>
    </g>
</svg>